# xmcd
#
# Track frame offsets:
#   150
#   45825
#   80925
#   126225
#   145050
#   171825
#   199050
#   218550
#   252375
#   296700
#
# Disc length: 4262 seconds
#
# Revision: 0
# Processed by: cddbd v1.5.2PL0 Copyright (c) Steve Scherf et al.
# Submitted via: GXTranscoder 2.0.1939
#
DISCID=9510a40a
DTITLE=ferrini - christus
DYEAR=1900
DGENRE=Alternative
TTITLE0=v
TTITLE1=e
TTITLE2=d
TTITLE3=p
TTITLE4=n
TTITLE5=i
TTITLE6=w
TTITLE7=n
TTITLE8=o
TTITLE9=l
EXTD=
EXTT0=
EXTT1=
EXTT2=
EXTT3=
EXTT4=
EXTT5=
EXTT6=
EXTT7=
EXTT8=
EXTT9=
PLAYORDER=
